# xmcd
#
# Track frame offsets:
#	150
#	6469
#	38600
#	58067
#	77766
#	97863
#	120252
#	137856
#	147128
#	164425
#	184413
#	200903
#	221633
#	241692
#	253318
#	265612
#	280282
#	299930
#
# Disc length: 4264 seconds
#
# Revision: 0
# Processed by: cddbd v1.5.2PL0 Copyright (c) Steve Scherf et al.
# Submitted via: EasyCDDAExtractor 10.0.3.1
#
DISCID=1710a612
DTITLE=Various Artist - 1982-1995
DYEAR=1900
DGENRE=
TTITLE0=AKADEMIA PANA KLEKSA - Witajcie W Naszej Bajce
TTITLE1=TADEUSZ NALEPA - Kiedy Byłem Małym Chłopcem
TTITLE2=PERFECT - Autobiografia
TTITLE3=MWNH - Najmniejszy Oddział Świata
TTITLE4=SHAKIN' DUDI - Och, Ziuta
TTITLE5=MARTYNA JAKUBOWICZ - W Domach Z Betonu Nie Ma Wolnej Miłości
TTITLE6=WOJCIECH WAGLEWSKI - To Nic Złego
TTITLE7=JEREMI PRZYBORA - Piosenka Jest Dobra Na Wszystko
TTITLE8=VOO VOO - Łeboskłon
TTITLE9=RÓŻE EUROPY - Babanowe Drzewa
TTITLE10=HOT WATER - Nic
TTITLE11=ILLUSION - Nóż
TTITLE12=BLENDERS - Za Pokojem
TTITLE13=DEZERTER - Ile Procent Duszy
TTITLE14=THE BILL - Nie Potrafię Kochać
TTITLE15=MATEUSZ POSPIESZALSKI - Idy Sadi
TTITLE16=MARTYNA JAKUBOWICZ - Zawsze Lubiłam Sprzątać
TTITLE17=STANISŁAW SOJKA - Tears In Heaven
EXTD=
EXTT0=
EXTT1=
EXTT2=
EXTT3=
EXTT4=
EXTT5=
EXTT6=
EXTT7=
EXTT8=
EXTT9=
EXTT10=
EXTT11=
EXTT12=
EXTT13=
EXTT14=
EXTT15=
EXTT16=
EXTT17=
PLAYORDER=
